<svg width="110" height="43" viewBox="0 0 110 43" fill="none" xmlns="http://www.w3.org/2000/svg">
<path d="M7.97594 42.2101C7.3786 42.2101 6.82794 42.1074 6.32394 41.9021C5.82927 41.6874 5.4046 41.3888 5.04994 41.0061C4.7046 40.6141 4.4666 40.1474 4.33594 39.6061L6.28194 39.1861C6.40327 39.5688 6.61327 39.8674 6.91194 40.0821C7.21994 40.2968 7.58394 40.4041 8.00394 40.4041C8.3026 40.4041 8.56394 40.3528 8.78794 40.2501C9.02127 40.1381 9.1986 39.9888 9.31994 39.8021C9.4506 39.6154 9.51594 39.4008 9.51594 39.1581C9.51594 38.8501 9.39927 38.6028 9.16594 38.4161C8.9326 38.2201 8.5546 38.0614 8.03194 37.9401L7.58394 37.8421C6.55727 37.6181 5.80127 37.2588 5.31594 36.7641C4.8306 36.2601 4.58794 35.6488 4.58794 34.9301C4.58794 34.4821 4.6766 34.0714 4.85394 33.6981C5.03127 33.3248 5.27394 33.0028 5.58194 32.7321C5.89927 32.4521 6.26794 32.2374 6.68794 32.0881C7.10794 31.9294 7.5606 31.8501 8.04594 31.8501C8.5966 31.8501 9.10994 31.9528 9.58594 32.1581C10.0619 32.3634 10.4633 32.6574 10.7899 33.0401C11.1166 33.4228 11.3359 33.8754 11.4479 34.3981L9.52994 34.8181C9.41794 34.4448 9.22194 34.1601 8.94194 33.9641C8.67127 33.7588 8.35394 33.6561 7.98994 33.6561C7.73794 33.6561 7.50927 33.7074 7.30394 33.8101C7.10794 33.9034 6.94927 34.0388 6.82794 34.2161C6.71594 34.3841 6.65994 34.5754 6.65994 34.7901C6.65994 35.1168 6.78594 35.3688 7.03794 35.5461C7.28994 35.7141 7.66327 35.8541 8.15794 35.9661L8.60594 36.0641C9.62327 36.2881 10.3746 36.6428 10.8599 37.1281C11.3546 37.6134 11.6019 38.2341 11.6019 38.9901C11.6019 39.4661 11.5086 39.9001 11.3219 40.2921C11.1446 40.6841 10.8926 41.0248 10.5659 41.3141C10.2393 41.6034 9.8566 41.8274 9.41794 41.9861C8.97927 42.1354 8.4986 42.2101 7.97594 42.2101Z" fill="#00ACFF"/>
<path d="M15.2353 42.0001V33.9081H12.4353V32.0601H20.1213V33.9081H17.3213V42.0001H15.2353Z" fill="#00ACFF"/>
<path d="M25.7333 42.2801C25.08 42.2801 24.492 42.1821 23.9693 41.9861C23.4466 41.7808 22.9986 41.4914 22.6253 41.1181C22.252 40.7354 21.9626 40.2828 21.7573 39.7601C21.5613 39.2281 21.4633 38.6354 21.4633 37.9821V32.0601H23.5493V37.8841C23.5493 38.3881 23.638 38.8268 23.8153 39.2001C23.9926 39.5734 24.2446 39.8628 24.5713 40.0681C24.9073 40.2641 25.2993 40.3621 25.7473 40.3621C26.1953 40.3621 26.5826 40.2641 26.9093 40.0681C27.236 39.8628 27.488 39.5734 27.6653 39.2001C27.852 38.8268 27.9453 38.3881 27.9453 37.8841V32.0601H30.0313V37.9821C30.0313 38.6354 29.9286 39.2281 29.7233 39.7601C29.5273 40.2828 29.238 40.7354 28.8553 41.1181C28.482 41.4914 28.0293 41.7808 27.4973 41.9861C26.9746 42.1821 26.3866 42.2801 25.7333 42.2801Z" fill="#00ACFF"/>
<path d="M31.7068 42.0001V32.0601H35.5708C36.3548 32.0601 37.0688 32.1814 37.7128 32.4241C38.3568 32.6574 38.9121 32.9934 39.3788 33.4321C39.8455 33.8708 40.2048 34.3934 40.4568 35.0001C40.7088 35.6068 40.8348 36.2788 40.8348 37.0161C40.8348 37.7534 40.7041 38.4301 40.4428 39.0461C40.1908 39.6528 39.8315 40.1801 39.3648 40.6281C38.8981 41.0668 38.3381 41.4074 37.6848 41.6501C37.0408 41.8834 36.3268 42.0001 35.5428 42.0001H31.7068ZM33.7928 40.1521H35.4448C36.1075 40.1521 36.6815 40.0261 37.1668 39.7741C37.6521 39.5221 38.0255 39.1628 38.2868 38.6961C38.5481 38.2294 38.6788 37.6741 38.6788 37.0301C38.6788 36.3861 38.5481 35.8308 38.2868 35.3641C38.0255 34.8974 37.6521 34.5381 37.1668 34.2861C36.6815 34.0341 36.1075 33.9081 35.4448 33.9081H33.7928V40.1521Z" fill="#00ACFF"/>
<path d="M44.3076 42.0001V38.1361L40.8356 32.0601H43.1596L45.3856 36.2461L47.5976 32.0601H49.8656L46.3936 38.1361V42.0001H44.3076Z" fill="#00ACFF"/>
<path d="M48.8216 42.0001L52.7696 32.0601H54.9816L58.9436 42.0001H56.8016L55.9896 39.8161H51.6916L50.8796 42.0001H48.8216ZM52.3496 38.0521H55.3316L53.8336 34.0901L52.3496 38.0521Z" fill="#00ACFF"/>
<path d="M61.2474 42.0561C61.014 42.0561 60.804 42.0001 60.6174 41.8881C60.44 41.7761 60.2954 41.6268 60.1834 41.4401C60.0714 41.2534 60.0154 41.0481 60.0154 40.8241C60.0154 40.6001 60.0714 40.3948 60.1834 40.2081C60.2954 40.0214 60.44 39.8721 60.6174 39.7601C60.804 39.6481 61.014 39.5921 61.2474 39.5921C61.4807 39.5921 61.686 39.6481 61.8634 39.7601C62.05 39.8721 62.1994 40.0214 62.3114 40.2081C62.4234 40.3948 62.4794 40.6001 62.4794 40.8241C62.4794 41.0481 62.4234 41.2534 62.3114 41.4401C62.1994 41.6268 62.05 41.7761 61.8634 41.8881C61.686 42.0001 61.4807 42.0561 61.2474 42.0561Z" fill="#00ACFF"/>
<g filter="url(#filter0_d_1_1879)">
<path d="M5.68018 22.0001V2.12006H18.5322V6.18006H10.4402V9.82006H17.5802V13.8801H10.4402V17.9401H18.8122V22.0001H5.68018Z" fill="#292E37"/>
<path d="M21.895 22.0001V2.12006H30.043C31.5924 2.12006 33.011 2.36272 34.299 2.84806C35.587 3.31472 36.6977 3.98672 37.631 4.86406C38.583 5.74139 39.311 6.78673 39.815 8.00006C40.3377 9.21339 40.599 10.5574 40.599 12.0321C40.599 13.5067 40.3377 14.8507 39.815 16.0641C39.311 17.2774 38.583 18.3321 37.631 19.2281C36.6977 20.1054 35.5777 20.7867 34.271 21.2721C32.983 21.7574 31.555 22.0001 29.987 22.0001H21.895ZM26.767 17.6881H29.735C30.9297 17.6881 31.9564 17.4641 32.815 17.0161C33.6924 16.5494 34.3644 15.8961 34.831 15.0561C35.3164 14.2161 35.559 13.2174 35.559 12.0601C35.559 10.9027 35.3164 9.90406 34.831 9.06406C34.3644 8.22406 33.6924 7.58006 32.815 7.13206C31.9564 6.66539 30.9297 6.43206 29.735 6.43206H26.767V17.6881Z" fill="#292E37"/>
<path d="M51.9839 22.5601C50.6399 22.5601 49.4265 22.3547 48.3439 21.9441C47.2799 21.5334 46.3559 20.9454 45.5719 20.1801C44.8065 19.4147 44.2185 18.5001 43.8079 17.4361C43.3972 16.3534 43.1919 15.1494 43.1919 13.8241V2.12006H48.0639V13.6001C48.0639 14.5147 48.2225 15.3081 48.5399 15.9801C48.8759 16.6521 49.3332 17.1747 49.9119 17.5481C50.5092 17.9027 51.2185 18.0801 52.0399 18.0801C52.8612 18.0801 53.5612 17.9027 54.1399 17.5481C54.7372 17.1747 55.1945 16.6521 55.5119 15.9801C55.8479 15.3081 56.0159 14.5147 56.0159 13.6001V2.12006H60.8879V13.8241C60.8879 15.1494 60.6732 16.3534 60.2439 17.4361C59.8332 18.5001 59.2359 19.4147 58.4519 20.1801C57.6865 20.9454 56.7532 21.5334 55.6519 21.9441C54.5505 22.3547 53.3279 22.5601 51.9839 22.5601Z" fill="#292E37"/>
<path d="M73.5504 22.5601C72.3931 22.5601 71.3011 22.3921 70.2744 22.0561C69.2664 21.7201 68.3424 21.2441 67.5024 20.6281C66.6811 20.0121 65.9718 19.2841 65.3744 18.4441C64.7771 17.5854 64.3104 16.6334 63.9744 15.5881C63.6571 14.5241 63.4984 13.3947 63.4984 12.2001C63.4984 11.0054 63.6571 9.87606 63.9744 8.81206C64.3104 7.72939 64.7771 6.74939 65.3744 5.87206C65.9904 4.97606 66.7184 4.21073 67.5584 3.57606C68.3984 2.92272 69.3224 2.42806 70.3304 2.09206C71.3571 1.73739 72.4398 1.56006 73.5784 1.56006C74.6424 1.56006 75.6504 1.70939 76.6024 2.00806C77.5731 2.30673 78.4411 2.73606 79.2064 3.29606C79.9904 3.83739 80.6531 4.50006 81.1944 5.28406C81.7544 6.04939 82.1744 6.91739 82.4544 7.88806L77.6944 8.95206C77.2838 8.01873 76.7144 7.30006 75.9864 6.79606C75.2584 6.29206 74.4278 6.04006 73.4944 6.04006C72.7851 6.04006 72.1224 6.19872 71.5064 6.51606C70.9091 6.81473 70.3864 7.24406 69.9384 7.80406C69.4904 8.34539 69.1451 8.98939 68.9024 9.73606C68.6598 10.4641 68.5384 11.2667 68.5384 12.1441C68.5384 13.0027 68.6598 13.7961 68.9024 14.5241C69.1451 15.2521 69.4904 15.8867 69.9384 16.4281C70.3864 16.9507 70.9184 17.3614 71.5344 17.6601C72.1504 17.9401 72.8224 18.0801 73.5504 18.0801C74.5211 18.0801 75.3704 17.8374 76.0984 17.3521C76.8451 16.8481 77.4424 16.1201 77.8904 15.1681L82.6504 16.2321C82.2771 17.5387 81.6518 18.6681 80.7744 19.6201C79.9158 20.5534 78.8704 21.2814 77.6384 21.8041C76.4064 22.3081 75.0438 22.5601 73.5504 22.5601Z" fill="#292E37"/>
<path d="M83.0321 22.0001L90.9001 2.12006H96.0801L103.948 22.0001H98.9081L97.5081 18.1361H89.3041L87.9041 22.0001H83.0321ZM90.7881 14.0481H96.0241L93.3921 6.79606L90.7881 14.0481Z" fill="#292E37"/>
<path d="M34.4464 21.7403C35.8095 21.2338 36.9877 20.519 37.9735 19.5924L37.9737 19.5922C38.9766 18.6482 39.7447 17.5357 40.2756 16.2587C40.8272 14.9769 41.099 13.5656 41.099 12.0321C41.099 10.4985 40.8272 9.08726 40.2756 7.80541C39.7446 6.5283 38.9761 5.42423 37.9718 4.49816C36.9866 3.57251 35.8178 2.86694 34.4723 2.37904C33.1221 1.87073 31.6439 1.62006 30.043 1.62006H21.895H21.395V2.12006V22.0001V22.5001H21.895H29.987C31.6066 22.5001 33.0951 22.2494 34.4464 21.7403ZM34.4464 21.7403C34.446 21.7404 34.4456 21.7406 34.4451 21.7408L34.271 21.2721M34.4464 21.7403C34.4467 21.7402 34.447 21.7401 34.4473 21.7399L34.271 21.2721M34.271 21.2721C32.983 21.7574 31.555 22.0001 29.987 22.0001H22.395L39.815 8.00006C40.3377 9.21339 40.599 10.5574 40.599 12.0321C40.599 13.5067 40.3377 14.8507 39.815 16.0641C39.311 17.2774 38.583 18.3321 37.631 19.2281C36.6977 20.1054 35.5777 20.7867 34.271 21.2721ZM5.18018 22.0001V22.5001H5.68018H18.8122H19.3122V22.0001V17.9401V17.4401H18.8122H10.9402V14.3801H17.5802H18.0802V13.8801V9.82006V9.32006H17.5802H10.9402V6.68006H18.5322H19.0322V6.18006V2.12006V1.62006H18.5322H5.68018H5.18018V2.12006V22.0001ZM34.3981 14.8059L34.398 14.8059L34.3939 14.8132C33.9761 15.5653 33.3764 16.1507 32.5821 16.5736C31.8099 16.9761 30.8668 17.1881 29.735 17.1881H27.267V6.93206H29.735C30.8647 6.93206 31.8055 7.15246 32.5763 7.57137L32.5762 7.57152L32.5876 7.57736C33.3789 7.9814 33.9768 8.55599 34.3939 9.30688L34.3939 9.30691L34.3981 9.3142C34.8317 10.0647 35.059 10.9736 35.059 12.0601C35.059 13.1466 34.8317 14.0554 34.3981 14.8059ZM48.1638 22.4105L48.1665 22.4116C49.3142 22.8469 50.5889 23.0601 51.9839 23.0601C53.3791 23.0601 54.6619 22.8468 55.8266 22.4125C56.9882 21.9794 57.9834 21.355 58.8033 20.5357C59.6391 19.7192 60.2744 18.7447 60.7094 17.6185C61.1645 16.4701 61.3879 15.2031 61.3879 13.8241V2.12006V1.62006H60.8879H56.0159H55.5159V2.12006V13.6001C55.5159 14.4537 55.3592 15.1674 55.0647 15.7565L55.0645 15.7564L55.0597 15.7666C54.7813 16.3562 54.3873 16.8033 53.8767 17.1229C53.3921 17.4194 52.7875 17.5801 52.0399 17.5801C51.2958 17.5801 50.6806 17.4209 50.1751 17.1229C49.6835 16.8037 49.2875 16.3553 48.9896 15.7616C48.7118 15.1709 48.5639 14.4552 48.5639 13.6001V2.12006V1.62006H48.0639H43.1919H42.6919V2.12006V13.8241C42.6919 15.2013 42.9053 16.4665 43.3404 17.6134L43.3414 17.6161C43.7758 18.7416 44.401 19.7163 45.2183 20.5336L45.2183 20.5336L45.2226 20.5378C46.057 21.3524 47.0393 21.9765 48.1638 22.4105ZM70.1163 22.5304L70.1189 22.5313C71.1992 22.8848 72.344 23.0601 73.5504 23.0601C75.1008 23.0601 76.5288 22.7982 77.8278 22.2669L77.8337 22.2644C79.1276 21.7154 80.2328 20.9472 81.1424 19.9586C82.0751 18.9464 82.7375 17.7472 83.1312 16.3694L83.2768 15.8597L82.7595 15.7441L77.9995 14.6801L77.6086 14.5927L77.438 14.9552C77.0221 15.8391 76.4795 16.4913 75.8197 16.9369C75.183 17.361 74.433 17.5801 73.5504 17.5801C72.8906 17.5801 72.2917 17.454 71.747 17.2075C71.1968 16.9398 70.7225 16.5736 70.3209 16.106C69.9171 15.6171 69.6012 15.0392 69.3768 14.3659C69.153 13.6946 69.0384 12.9553 69.0384 12.1441C69.0384 11.3129 69.1533 10.5645 69.3768 9.89418L69.3779 9.8906C69.6034 9.19687 69.9203 8.61024 70.3236 8.12284L70.3237 8.12289L70.3289 8.11641C70.7351 7.60866 71.2021 7.22724 71.73 6.9633L71.7354 6.96055C72.2789 6.68058 72.8628 6.54006 73.4944 6.54006C74.3319 6.54006 75.0621 6.76427 75.7018 7.20715C76.3429 7.651 76.8576 8.29158 77.2368 9.15343L77.4023 9.52969L77.8035 9.44002L82.5635 8.37602L83.0821 8.26009L82.9348 7.74948C82.6403 6.7285 82.1968 5.80864 81.602 4.99435C81.0283 4.16488 80.3257 3.46225 79.4962 2.88853C78.6846 2.29569 77.7682 1.84381 76.7511 1.53067C75.7478 1.21604 74.6894 1.06006 73.5784 1.06006C72.3878 1.06006 71.2506 1.24551 70.1696 1.61861C69.11 1.97217 68.1375 2.49275 67.2543 3.17915C66.3712 3.84684 65.6072 4.65096 64.9624 5.58879L64.9611 5.59066C64.3341 6.51166 63.8466 7.53708 63.4969 8.66386L63.4969 8.66385L63.4953 8.66916C63.1631 9.78291 62.9984 10.9607 62.9984 12.2001C62.9984 13.4395 63.1631 14.6172 63.4953 15.731L63.4952 15.731L63.4984 15.7411C63.8488 16.8312 64.337 17.8283 64.964 18.7296L64.9669 18.7338C65.5941 19.6157 66.3396 20.381 67.2024 21.0281L67.2024 21.0281L67.2067 21.0313C68.0895 21.6786 69.06 22.1783 70.1163 22.5304ZM82.5672 21.8161L82.2965 22.5001H83.0321H87.9041H88.2548L88.3742 22.1704L89.6548 18.6361H97.1575L98.438 22.1704L98.5575 22.5001H98.9081H103.948H104.684L104.413 21.8161L96.5451 1.93606L96.42 1.62006H96.0801H90.9001H90.5603L90.4352 1.93606L82.5672 21.8161ZM91.4989 13.5481L93.3947 8.26857L95.3108 13.5481H91.4989Z" stroke="black"/>
</g>
<defs>
<filter id="filter0_d_1_1879" x="0.680176" y="0.560059" width="108.739" height="31" filterUnits="userSpaceOnUse" color-interpolation-filters="sRGB">
<feFlood flood-opacity="0" result="BackgroundImageFix"/>
<feColorMatrix in="SourceAlpha" type="matrix" values="0 0 0 0 0 0 0 0 0 0 0 0 0 0 0 0 0 0 127 0" result="hardAlpha"/>
<feOffset dy="4"/>
<feGaussianBlur stdDeviation="2"/>
<feComposite in2="hardAlpha" operator="out"/>
<feColorMatrix type="matrix" values="0 0 0 0 0 0 0 0 0 0 0 0 0 0 0 0 0 0 0.25 0"/>
<feBlend mode="normal" in2="BackgroundImageFix" result="effect1_dropShadow_1_1879"/>
<feBlend mode="normal" in="SourceGraphic" in2="effect1_dropShadow_1_1879" result="shape"/>
</filter>
</defs>
</svg>
